<?xml version="1.0" encoding="iso-8859-1"?>
<!-- Generator: Adobe Illustrator 19.0.0, SVG Export Plug-In . SVG Version: 6.00 Build 0)  -->
<svg version="1.1" id="Capa_1" xmlns="http://www.w3.org/2000/svg" xmlns:xlink="http://www.w3.org/1999/xlink" x="0px" y="0px" fill="#ca3c3f"
	 viewBox="0 0 512 512" style="enable-background:new 0 0 512 512;" xml:space="preserve">
<g>
	<g>
		<path d="M512,339.742c0-13.228-7.605-24.808-19.163-30.167c2.613-15.437-6.272-32.911-23.048-42.597
			c-1.198-0.691-2.426-1.332-3.672-1.925c-2.664-17.119-17.988-32.538-39.033-37.614c-2.028-5.99-5.59-11.682-10.6-16.75
			c-8.99-9.094-21.646-15.138-35.637-17.02c-4.207-0.565-8.421-0.735-12.576-0.514c-5.38-4.934-12.026-9.193-19.96-12.73
			c-14.601-6.509-33.621-10.614-56.534-12.202c-32.575-2.259-63.358,1.15-72.793,2.361c-6.466-5.058-14.039-8.597-22.119-10.266
			c-4.808-11.293-16.015-19.231-29.043-19.231c-15.594,0-28.574,11.376-31.097,26.263c-33.396,5.94-66.688,11.525-89.152,15.231
			c-8.131,1.34-16.392-0.947-22.672-6.276c-6.292-5.34-9.901-13.14-9.901-21.401c0-11.05,6.52-21.104,16.61-25.614
			c31.797-14.21,96.18-39.004,170.113-45.401c90.271-7.806,166.23,13.859,225.777,64.404c3.159,2.683,7.893,2.293,10.571-0.864
			c2.681-3.158,2.294-7.891-0.864-10.571c-62.71-53.23-142.377-76.085-236.775-67.911C124.306,75.533,58.15,101.002,25.49,115.598
			C10.005,122.517,0,137.947,0,154.906c0,12.674,5.539,24.643,15.196,32.838c4.181,3.548,8.937,6.208,13.997,7.927l43.851,17.024
			l-14.807,10.631c-2.323,1.668-3.495,4.512-3.022,7.332c0.473,2.82,2.508,5.126,5.247,5.946
			c3.19,0.954,70.719,21.086,108.714,27.45l-1.835,0.533c-3.469,1.007-6.708,2.831-9.368,5.277l-53.344,49.059
			c-3.049,2.804-3.247,7.549-0.443,10.598c1.479,1.607,3.497,2.423,5.522,2.423c1.814,0,3.634-0.654,5.075-1.979l53.343-49.059
			c0.965-0.887,2.139-1.548,3.397-1.913l55.983-16.264c6.058,1.416,12.026,2.677,17.892,3.778l-43.802,17.363
			c-4.867,1.93-9.003,5.482-11.645,10.002l-41.13,70.375c-2.09,3.576-0.885,8.169,2.691,10.26c1.189,0.695,2.492,1.025,3.777,1.025
			c2.578,0,5.087-1.33,6.482-3.717l41.13-70.375c0.957-1.639,2.457-2.927,4.222-3.626l68.068-26.982
			c8.014,0.792,15.729,1.222,23.118,1.307l-57.648,25.722c-5.99,2.673-10.626,7.773-12.718,13.994l-25.147,74.829
			c-1.319,3.927,0.794,8.18,4.721,9.499c0.792,0.267,1.598,0.393,2.39,0.393c3.133,0,6.055-1.979,7.108-5.112l25.147-74.829
			c0.758-2.257,2.439-4.106,4.611-5.075l94.532-42.179c7.997,5.55,17.556,9.189,27.934,10.584c0.767,0.103,1.534,0.193,2.3,0.27
			c6.577,13.04,20.355,23.088,36.918,26.63c1.762,0.377,3.515,0.653,5.26,0.87c3.958,8.773,10.968,16.36,20.064,21.612
			c3.918,2.262,7.989,3.937,12.081,5.051c-0.283,1.755-0.431,3.539-0.431,5.345c0,9.254,3.799,17.634,9.916,23.673
			c-11.328,21.536-27.216,27.331-27.871,27.561c-3.323,1.107-5.438,4.368-5.093,7.854c0.346,3.485,3.058,6.269,6.533,6.703
			l7.641,0.955l-16.347,23.188c-1.715,2.433-1.829,5.649-0.291,8.197c1.539,2.548,4.442,3.946,7.39,3.562
			c1.354-0.177,28.768-3.945,49.166-21.301l4.714,18.855c0.721,2.88,3.071,5.064,5.996,5.57c0.429,0.074,0.856,0.11,1.281,0.11
			c2.479,0,4.834-1.231,6.239-3.34c0.532-0.798,13.067-19.831,15.743-43.914c1.674-15.067,0.59-28.685-3.2-40.561
			C510.263,351.851,512,345.996,512,339.742z M167.822,156.089c9.125,0,16.549,7.423,16.549,16.548s-7.424,16.549-16.549,16.549
			s-16.548-7.424-16.548-16.549S158.697,156.089,167.822,156.089z M226.754,247.126c7.514-8.782,11.929-19.696,12.605-31.442
			c0.06-1.024,0.09-2.076,0.09-3.126c0-4.142-3.357-7.5-7.5-7.5s-7.5,3.358-7.5,7.5c0,0.761-0.021,1.52-0.064,2.26
			c-0.599,10.404-5.283,19.9-13.191,26.74c-7.908,6.842-18.018,10.107-28.453,9.196c-23.56-2.056-77.184-16.784-103.236-24.232
			l13.531-9.715c2.236-1.606,3.414-4.307,3.068-7.037c-0.347-2.73-2.16-5.052-4.726-6.048l-23.828-9.251
			c20.253-3.384,45.184-7.624,70.275-12.08c4.119,12.635,16.005,21.794,29.997,21.794c16.087,0,29.39-12.105,31.303-27.683
			c7.137,2.59,13.459,7.273,18.02,13.523c1.469,2.013,3.751,3.08,6.064,3.08c1.534,0,3.082-0.469,4.415-1.442
			c2.361-1.724,3.414-4.567,2.975-7.268c13.564-1.317,36.575-2.842,60.14-1.207c32.093,2.224,71.709,10.833,78.19,39.216
			c1.542,6.756-0.521,12.91-6.135,18.289C347.183,255.654,302.437,265.698,226.754,247.126z M371.242,265.099
			c-4.551-0.613-8.958-1.813-13.031-3.515c5.883-2.826,10.914-6.18,14.964-10.062c9.412-9.021,13.099-20.547,10.379-32.458
			c-0.831-3.641-2.055-7.089-3.621-10.362c10.28,1.593,19.44,6.014,25.884,12.533c6.159,6.23,9.019,13.619,8.053,20.804
			c-0.967,7.185-5.677,13.554-13.263,17.937C392.39,264.721,381.961,266.541,371.242,265.099z M411.596,292.196
			c-9.057-1.937-17.082-6.542-22.415-12.533c6.801-1.158,13.228-3.407,18.928-6.7c11.702-6.759,19.027-17.031,20.626-28.925
			c0.02-0.149,0.028-0.298,0.046-0.446c15.241,5.611,24.961,18.405,22.336,30.675C448.141,288.177,430.413,296.218,411.596,292.196z
			 M441.283,316.356c-4.117-2.378-7.662-5.484-10.371-8.995c15.961-2.804,29.008-12.374,33.73-25.914
			c11.813,8.024,16.995,21.382,11.552,30.808C470.403,322.285,454.741,324.127,441.283,316.356z M495.543,395.76
			c-0.799,7.188-2.681,13.925-4.787,19.641l-3.028-12.114c-0.702-2.806-2.953-4.957-5.788-5.531
			c-2.824-0.571-5.744,0.532-7.483,2.844c-7.922,10.539-19.923,16.991-30.075,20.827l11.639-16.509
			c1.518-2.153,1.795-4.944,0.729-7.354c-1.02-2.308-3.128-3.94-5.601-4.361c5.67-5.121,11.764-12.226,16.999-21.907
			c3.324,1.116,6.875,1.73,10.57,1.73c5.851,0,11.351-1.523,16.133-4.185C496.399,376.92,496.635,385.93,495.543,395.76z
			 M478.717,358.025c-10.081,0-18.283-8.202-18.283-18.283c0-1.272,0.129-2.523,0.382-3.745c10.439-0.62,19.895-4.982,25.938-12.662
			C492.87,326.36,497,332.713,497,339.742C497,349.823,488.798,358.025,478.717,358.025z"/>
	</g>
</g>
<g>
</g>
<g>
</g>
<g>
</g>
<g>
</g>
<g>
</g>
<g>
</g>
<g>
</g>
<g>
</g>
<g>
</g>
<g>
</g>
<g>
</g>
<g>
</g>
<g>
</g>
<g>
</g>
<g>
</g>
</svg>
